<?xml version="1.0" encoding="UTF-8" standalone="no"?>
<!-- Created with Inkscape (http://www.inkscape.org/) -->

<svg
   width="25"
   height="20.455"
   viewBox="0 0 6.6145833 5.4120523"
   version="1.1"
   id="svg5"
   inkscape:version="1.1.1 (3bf5ae0d25, 2021-09-20)"
   sodipodi:docname="list-white.svg"
   xmlns:inkscape="http://www.inkscape.org/namespaces/inkscape"
   xmlns:sodipodi="http://sodipodi.sourceforge.net/DTD/sodipodi-0.dtd"
   xmlns="http://www.w3.org/2000/svg"
   xmlns:svg="http://www.w3.org/2000/svg">
  <sodipodi:namedview
     id="namedview7"
     pagecolor="#505050"
     bordercolor="#eeeeee"
     borderopacity="1"
     inkscape:pageshadow="0"
     inkscape:pageopacity="0"
     inkscape:pagecheckerboard="0"
     inkscape:document-units="mm"
     showgrid="false"
     units="px"
     width="25px"
     inkscape:zoom="7.5544332"
     inkscape:cx="-20.716313"
     inkscape:cy="10.523622"
     inkscape:window-width="1366"
     inkscape:window-height="715"
     inkscape:window-x="-8"
     inkscape:window-y="22"
     inkscape:window-maximized="1"
     inkscape:current-layer="layer1" />
  <defs
     id="defs2" />
  <g
     inkscape:label="Layer 1"
     inkscape:groupmode="layer"
     id="layer1">
    <g
       style="fill:#949aa7;fill-opacity:1"
       id="g1468"
       transform="matrix(0.60132578,0,0,0.60132578,-1.5033145,-2.1046402)">
      <path
         fill-rule="evenodd"
         d="M 2.5,12 A 0.5,0.5 0 0 1 3,11.5 h 10 a 0.5,0.5 0 0 1 0,1 H 3 A 0.5,0.5 0 0 1 2.5,12 Z m 0,-4 A 0.5,0.5 0 0 1 3,7.5 h 10 a 0.5,0.5 0 0 1 0,1 H 3 A 0.5,0.5 0 0 1 2.5,8 Z m 0,-4 A 0.5,0.5 0 0 1 3,3.5 h 10 a 0.5,0.5 0 0 1 0,1 H 3 A 0.5,0.5 0 0 1 2.5,4 Z"
         id="path1459"
         style="fill:#949aa7;fill-opacity:1" />
    </g>
  </g>
</svg>
