<?xml version="1.0" encoding="UTF-8" standalone="no"?>
<!-- Created with Inkscape (http://www.inkscape.org/) -->

<svg
   width="1280"
   height="720"
   viewBox="0 0 338.66666 190.50001"
   version="1.1"
   id="svg5"
   inkscape:version="1.1.1 (3bf5ae0d25, 2021-09-20)"
   sodipodi:docname="TitleBar Design.svg"
   xmlns:inkscape="http://www.inkscape.org/namespaces/inkscape"
   xmlns:sodipodi="http://sodipodi.sourceforge.net/DTD/sodipodi-0.dtd"
   xmlns="http://www.w3.org/2000/svg"
   xmlns:svg="http://www.w3.org/2000/svg">
  <sodipodi:namedview
     id="namedview7"
     pagecolor="#505050"
     bordercolor="#eeeeee"
     borderopacity="1"
     inkscape:pageshadow="0"
     inkscape:pageopacity="0"
     inkscape:pagecheckerboard="0"
     inkscape:document-units="px"
     showgrid="false"
     units="px"
     width="1280px"
     inkscape:zoom="2"
     inkscape:cx="39.75"
     inkscape:cy="53.25"
     inkscape:window-width="1366"
     inkscape:window-height="715"
     inkscape:window-x="-8"
     inkscape:window-y="22"
     inkscape:window-maximized="1"
     inkscape:current-layer="layer1"
     inkscape:snap-global="true"
     inkscape:lockguides="true"
     inkscape:snap-bbox="false"
     showguides="false"
     inkscape:guide-bbox="true" />
  <defs
     id="defs2">
    <rect
       x="82"
       y="146"
       width="125"
       height="36"
       id="rect6650" />
    <rect
       x="87.365919"
       y="25.41554"
       width="2.1179617"
       height="13.766751"
       id="rect9064" />
    <rect
       x="79.953053"
       y="6.353885"
       width="52.419551"
       height="32.828406"
       id="rect6592" />
    <rect
       x="85.777448"
       y="23.297578"
       width="0"
       height="12.17828"
       id="rect5674" />
    <rect
       x="87.365919"
       y="14.825732"
       width="169.43693"
       height="60.361907"
       id="rect2588" />
  </defs>
  <g
     inkscape:label="Layer 1"
     inkscape:groupmode="layer"
     id="layer1">
    <rect
       style="fill:#272c36;fill-opacity:1;stroke:none;stroke-width:0.513122;paint-order:stroke fill markers"
       id="rect897"
       width="92.075005"
       height="179.12292"
       x="0"
       y="11.641666" />
    <g
       style="fill:#949aa7;fill-opacity:1"
       id="g1630"
       transform="matrix(0.41341147,0,0,0.41341147,13.039767,1.9843783)" />
    <text
       xml:space="preserve"
       transform="scale(0.26458334)"
       id="text5672"
       style="line-height:0.25;font-family:sans-serif;font-size:2.2px;white-space:pre;shape-inside:url(#rect5674)" />
    <text
       xml:space="preserve"
       transform="scale(0.26458334)"
       id="text6590"
       style="line-height:0.25;font-family:sans-serif;font-size:2.2px;white-space:pre;shape-inside:url(#rect6592)" />
    <text
       xml:space="preserve"
       transform="scale(0.26458334)"
       id="text9062"
       style="line-height:0.25;font-family:sans-serif;font-size:2.2px;white-space:pre;shape-inside:url(#rect9064)" />
    <rect
       style="fill:#1b1d23;fill-opacity:1;stroke:none;stroke-width:0.304535;stroke-miterlimit:4;stroke-dasharray:none;stroke-opacity:1;paint-order:stroke fill markers"
       id="rect1264"
       width="338.66669"
       height="10.583334"
       x="1.2186044e-06"
       y="3.1249997e-06" />
    <g
       style="fill:#949aa7;fill-opacity:1"
       id="g1468"
       transform="matrix(0.60132578,0,0,0.60132578,0.56689064,0.48106073)">
      <path
         fill-rule="evenodd"
         d="M 2.5,12 A 0.5,0.5 0 0 1 3,11.5 h 10 a 0.5,0.5 0 0 1 0,1 H 3 A 0.5,0.5 0 0 1 2.5,12 Z m 0,-4 A 0.5,0.5 0 0 1 3,7.5 h 10 a 0.5,0.5 0 0 1 0,1 H 3 A 0.5,0.5 0 0 1 2.5,8 Z m 0,-4 A 0.5,0.5 0 0 1 3,3.5 h 10 a 0.5,0.5 0 0 1 0,1 H 3 A 0.5,0.5 0 0 1 2.5,4 Z"
         id="path1459"
         style="fill:#949aa7;fill-opacity:1" />
    </g>
    <path
       d="m 16.347059,8.5989588 a 3.3072919,3.3072919 0 1 0 0,-6.6145837 3.3072919,3.3072919 0 0 0 0,6.6145837 z M 13.994748,4.1518915 A 0.41341148,0.41341148 0 0 1 14.395757,3.638021 h 1.124479 a 0.41341148,0.41341148 0 0 1 0.413411,0.4134115 v 0.047956 a 1.7445964,1.7445964 0 0 1 0.413412,-0.047956 c 0.144694,0 0.285254,0.016536 0.413411,0.047956 V 4.0514325 A 0.41341148,0.41341148 0 0 1 17.173882,3.638021 h 1.124479 a 0.41341148,0.41341148 0 0 1 0.401009,0.5138705 l -0.128571,0.513457 A 0.82682296,0.82682296 0 0 1 17.768781,5.2916669 H 17.587293 A 0.82682296,0.82682296 0 0 1 16.762951,4.5314032 1.2361003,1.2361003 0 0 0 16.347059,4.464844 c -0.162471,0 -0.305925,0.026458 -0.415892,0.066559 A 0.82682296,0.82682296 0 0 1 15.106824,5.2916669 H 14.92575 A 0.82682296,0.82682296 0 0 1 14.123732,4.6653485 Z m 1.099261,1.8632455 a 1.4461134,1.4461134 0 0 0 1.25305,0.7234701 1.4461134,1.4461134 0 0 0 1.253463,-0.7234701 0.20670574,0.20670574 0 1 1 0.358015,0.2067058 1.8595248,1.8595248 0 0 1 -1.611478,0.9301758 1.8595248,1.8595248 0 0 1 -1.611478,-0.9301758 0.20670574,0.20670574 0 0 1 0.358014,-0.2067058 z"
       id="path1621"
       style="fill:#949aa7;fill-opacity:1;stroke-width:0.413411" />
    <text
       xml:space="preserve"
       transform="matrix(0.26458334,0,0,0.26458334,1.2186044e-6,0.5109968)"
       id="text2586"
       style="font-style:normal;font-variant:normal;font-weight:normal;font-stretch:normal;font-size:22px;line-height:0.25;font-family:'Times New Roman';-inkscape-font-specification:'Times New Roman, ';white-space:pre;shape-inside:url(#rect2588);fill:#949aa7;fill-opacity:1"><tspan
         x="87.365234"
         y="23.35383"
         id="tspan1222">Chat App</tspan></text>
    <rect
       style="fill:none;fill-opacity:1;stroke:#949aa7;stroke-width:0.29214;stroke-miterlimit:4;stroke-dasharray:none;stroke-opacity:1;paint-order:stroke fill markers"
       id="rect17394"
       width="3.9411929"
       height="3.9411929"
       x="320.02737"
       y="3.3210738" />
    <g
       id="g1058">
      <path
         fill-rule="evenodd"
         d="m 334.11694,3.2268596 a 0.17636262,0.17636262 0 0 1 0,0.2497294 l -3.87998,3.8799777 a 0.1765856,0.1765856 0 0 1 -0.24973,-0.2497295 l 3.87998,-3.8799776 a 0.17636262,0.17636262 0 0 1 0.24973,0 z"
         id="path17610"
         style="fill:#949aa7;fill-opacity:1;stroke-width:0.352725" />
      <path
         fill-rule="evenodd"
         d="m 329.98723,3.2268596 a 0.17636262,0.17636262 0 0 0 0,0.2497294 l 3.87998,3.8799777 a 0.1765856,0.1765856 0 0 0 0.24973,-0.2497295 l -3.87998,-3.8799776 a 0.17636262,0.17636262 0 0 0 -0.24973,0 z"
         id="path17612"
         style="fill:#949aa7;fill-opacity:1;stroke-width:0.352725" />
    </g>
    <path
       style="fill:none;stroke:#949aa7;stroke-width:0.383268;stroke-linecap:butt;stroke-linejoin:miter;stroke-miterlimit:4;stroke-dasharray:none;stroke-opacity:1"
       d="m 310.09168,5.7243707 h 4.23333"
       id="path18183" />
    <rect
       style="fill:#2c313c;fill-opacity:1;stroke:none;stroke-width:0.526845;paint-order:stroke fill markers"
       id="rect1369"
       width="245.52567"
       height="179.12292"
       x="93.141006"
       y="11.641666" />
    <g
       id="g3318">
      <path
         style="fill:none;stroke:#343b4b;stroke-width:1.05833;stroke-linecap:butt;stroke-linejoin:miter;stroke-miterlimit:4;stroke-dasharray:none;stroke-opacity:1"
         d="M 1.9461109e-6,11.112499 H 338.66667"
         id="path1648" />
      <path
         style="fill:none;stroke:#343b4b;stroke-width:1.05596;stroke-linecap:butt;stroke-linejoin:miter;stroke-miterlimit:4;stroke-dasharray:none;stroke-opacity:1"
         d="M 92.604172,11.641667 V 190.76459"
         id="path2035" />
    </g>
    <rect
       style="fill:#1b1d23;fill-opacity:1;stroke:none;stroke-width:0.84675;stroke-miterlimit:4;stroke-dasharray:none;stroke-opacity:1;paint-order:stroke fill markers"
       id="rect2415"
       width="89.429169"
       height="21.166668"
       x="1.3229179"
       y="13.229167" />
    <rect
       style="fill:#4f9fee;fill-opacity:1;stroke:none;stroke-width:0.831584;stroke-miterlimit:4;stroke-dasharray:none;stroke-opacity:1;paint-order:stroke fill markers"
       id="rect3278"
       width="86.254166"
       height="21.166668"
       x="2.9104195"
       y="35.454166" />
    <rect
       style="fill:#1b1d23;fill-opacity:1;stroke:none;stroke-width:0.84675;stroke-miterlimit:4;stroke-dasharray:none;stroke-opacity:1;paint-order:stroke fill markers"
       id="rect3312"
       width="89.429169"
       height="21.166668"
       x="1.3229179"
       y="57.679169" />
    <rect
       style="fill:#1b1d23;fill-opacity:1;stroke:none;stroke-width:0.84675;stroke-miterlimit:4;stroke-dasharray:none;stroke-opacity:1;paint-order:stroke fill markers"
       id="rect3314"
       width="89.429169"
       height="21.166668"
       x="1.3229179"
       y="79.904167" />
    <rect
       style="fill:#1b1d23;fill-opacity:1;stroke:none;stroke-width:0.84675;stroke-miterlimit:4;stroke-dasharray:none;stroke-opacity:1;paint-order:stroke fill markers"
       id="rect3320"
       width="89.429169"
       height="21.166668"
       x="1.3229179"
       y="102.12917" />
    <rect
       style="fill:#1b1d23;fill-opacity:1;stroke:none;stroke-width:0.84675;stroke-miterlimit:4;stroke-dasharray:none;stroke-opacity:1;paint-order:stroke fill markers"
       id="rect3322"
       width="89.429169"
       height="21.166668"
       x="1.3229179"
       y="124.35417" />
    <rect
       style="fill:#1b1d23;fill-opacity:1;stroke:none;stroke-width:0.84675;stroke-miterlimit:4;stroke-dasharray:none;stroke-opacity:1;paint-order:stroke fill markers"
       id="rect3324"
       width="89.429169"
       height="21.166668"
       x="1.3229179"
       y="146.57916" />
    <rect
       style="fill:#1b1d23;fill-opacity:1;stroke:none;stroke-width:0.84675;stroke-miterlimit:4;stroke-dasharray:none;stroke-opacity:1;paint-order:stroke fill markers"
       id="rect3326"
       width="89.429169"
       height="21.166668"
       x="1.3229179"
       y="168.80417" />
    <text
       xml:space="preserve"
       transform="matrix(0.26458334,0,0,0.26458334,12.204812,6.9608698)"
       id="text6648"
       style="font-size:30px;line-height:0.25;font-family:sans-serif;white-space:pre;shape-inside:url(#rect6650)"><tspan
         x="82"
         y="158.36991"
         id="tspan1224">Hover</tspan></text>
  </g>
</svg>
